<svg xmlns="http://www.w3.org/2000/svg" viewBox="0 0 947.37 767.17"><style>.st1{fill:orange}</style><g id="Camada_1"><path class="st1" d="M337.95 234.35S335 108.26 402.18 71.13c0 0 35.35-38.89 115.49 14.73s71.3 123.15 71.3 123.15-2.36 18.86-19.44 17.09c0 0 6.48-2.36 4.71-6.48 0 0-17.09 6.48-24.16 2.95 0 0 9.43-1.18 8.84-5.3 0 0-11.2.59-16.5-.59 0 0 8.25-2.36 0-13.55s-28.87-24.75-34.76-27.1c0 0 3.54 1.77 4.12 10.02 0 0-15.32-20.62-27.69-21.8 0 0 4.12 5.3 2.95 10.02 0 0-7.66-12.96-11.78-11.2s-24.75 17.68-21.21 27.1c0 0-3.54-7.07-1.77-12.96 0 0-15.91 28.28-12.37 35.35 0 0-6.48-7.07-5.89-10.02 0 0-3.54 33-14.73 31.82 0 0-11.78-14.73-20.62-22.98-8.84-8.25-21.8-21.21-34.18-2.36-12.37 18.86-3.54 38.3-3.54 38.3l-23-12.97zm190.32 23.57s6.48-8.84 0-10.61-25.34-6.48-53.03 0c0 .01 47.73 2.95 53.03 10.61zm-22.28 9.43s-8.88 9.12-26.11-5.3c0 0 11.12 11.2 18.78 11.78 0 0 7.34.75 7.33-6.48zm-47.84 70.12s10.02-14.73 20.62-14.73 32.41-5.89 32.41-5.89l8.25 2.36s1.18 12.37-5.3 15.91c0 0-21.8-5.89-38.89-1.77l-17.09 4.12zm107.24-109.01c-.78 3.66-1.86 7.25-3.26 10.74-1.42 3.47-3.06 6.94-5.7 9.84-.66.72-1.42 1.37-2.26 1.95-.42.29-.87.53-1.34.75l-1.32.56c-1.76.72-3.55 1.35-5.34 1.92-1.78.57-3.61 1.07-5.2 1.75-.78.33-1.52.75-1.82 1.18-.08.1-.15.2-.17.31-.06.09-.06.22-.07.34-.03.07-.01.38-.01.59l.01.7c.09 7.46.19 14.93.22 22.39.02 7.46.07 14.93.02 22.39l-.03-.29c.23 1.34.28 2.53.24 3.81-.06 1.26-.24 2.53-.62 3.78-.39 1.25-.99 2.48-1.85 3.54-.86 1.07-1.98 1.92-3.19 2.5-1.21.58-2.5.92-3.76 1.05-.64.11-1.26.09-1.89.13-.62-.02-1.24-.02-1.85-.08-2.45-.21-4.79-.76-7.06-1.45l.12.03-11.23-2.44-5.61-1.24c-.87-.16-2.06-.52-2.94-1.12-.88-.61-1.67-1.34-2.26-2.2-1.22-1.68-1.94-3.68-2.02-5.71-.1-2.03.44-4.09 1.55-5.76.14-.21.27-.42.42-.62l.5-.55.5-.55.58-.47c.38-.3.76-.66 1.22-.86.44-.22.89-.41 1.35-.58 1.84-.65 3.81-.85 5.71-.65-3.79-.06-7.77 1.44-9.54 4.74-.91 1.58-1.25 3.42-1.05 5.2.18 1.78.96 3.48 2.03 4.84.53.7 1.21 1.25 1.91 1.69.75.42 1.41.61 2.43.76l5.64 1 11.26 2.04.04.01.08.02c2.17.6 4.37 1.06 6.54 1.21.54.04 1.08.03 1.62.04.52-.05 1.07-.04 1.57-.14 1.04-.13 2.01-.42 2.88-.86 1.74-.87 2.94-2.43 3.51-4.37.56-1.91.61-4.19.27-6.16l-.03-.17v-.13c-.05-7.46 0-14.93.02-22.39.03-7.46.13-14.93.22-22.39l.01-.7c.01-.25-.01-.41.04-.8.04-.34.09-.68.25-1.01.12-.35.31-.63.53-.89.88-1.04 1.9-1.44 2.82-1.82 1.88-.72 3.68-1.13 5.47-1.64 1.79-.5 3.55-1.01 5.28-1.63l1.28-.48c.38-.16.76-.34 1.12-.56.72-.45 1.42-.98 2.05-1.61 2.54-2.51 4.43-5.77 6.03-9.09.8-1.67 1.52-3.39 2.19-5.12.71-1.73 1.35-3.48 1.89-5.27z"/><path class="st1" d="M519.51 296.81c.3-.43.49-.92.67-1.42.19-.49.34-.99.49-1.49.29-1 .55-2.02.8-3.04.51-2.04.94-4.09 1.49-6.14-.08 1.06-.21 2.1-.38 3.15-.16 1.04-.38 2.08-.62 3.11-.27 1.02-.54 2.05-.93 3.04-.39.99-.77 2.02-1.52 2.79zm-46.63 38.56c1.9 3.56 4.31 6.84 7.21 9.54 2.89 2.7 6.38 4.76 10.18 5.4 1.89.35 3.83.35 5.72.03.95-.17 1.89-.38 2.8-.67.86-.2 1.69-.69 2.49-1.18 1.57-1.01 2.9-2.38 3.58-4.01.69-1.62.66-3.48.09-5.25l.96.67c-2.83.06-5.6-.08-8.39-.25-2.78-.17-5.56-.48-8.32-.84-2.76-.39-5.51-.82-8.23-1.42-1.36-.28-2.72-.61-4.07-.93-.69-.16-1.31-.32-1.97-.52-.65-.2-1.34-.4-2.05-.57zm0 0c.64.12 1.31.22 2.01.32l2.1.33c1.37.2 2.74.41 4.11.56 2.75.33 5.49.63 8.25.85 2.75.25 5.51.37 8.26.49 2.75.11 5.52.12 8.23.06l.72-.02.23.69c.7 2.05.8 4.48-.1 6.61-.88 2.13-2.56 3.74-4.36 4.89-.92.56-1.86 1.11-2.97 1.38-1.02.32-2.05.52-3.1.67-2.09.29-4.25.23-6.32-.21-2.07-.45-4.04-1.27-5.83-2.36-1.79-1.08-3.36-2.46-4.79-3.94-1.43-1.49-2.63-3.16-3.72-4.88-1.06-1.74-2.01-3.54-2.72-5.44z"/><path class="st1" d="M508.65 333.89c.1.83.09 1.67-.06 2.52-.17.83-.46 1.73-1.2 2.4-.35.35-.84.56-1.33.68-.46.1-.87.15-1.29.2-.84.1-1.68.13-2.51.17-3.34.13-6.66-.04-9.96-.35-3.3-.35-6.59-.82-9.83-1.51-3.24-.68-6.46-1.52-9.59-2.63 3.31.29 6.58.7 9.84 1.09 3.26.37 6.52.76 9.78 1.06 3.26.34 6.52.6 9.78.78.81.04 1.63.07 2.43.08.4.01.81.01 1.17-.02.32-.04.63-.12.91-.31.59-.35.98-1.06 1.28-1.78.28-.75.48-1.56.58-2.38zm-115.02-77.73c.15 2.67 0 5.39-.75 8.02-.39 1.3-.96 2.6-1.94 3.65-.96 1.09-2.49 1.65-3.94 1.58-2.88-.3-5.33-1.65-7.65-3.06-2.32-1.44-4.45-3.15-6.43-5.01-3.99-3.7-7.4-8.04-9.93-12.9-2.52-4.85-4.12-10.27-4.22-15.82-.04-5.43.55-10.89 2.05-16.17.83-2.62 1.88-5.18 3.38-7.54 1.48-2.34 3.47-4.48 5.99-5.83 5.07-2.78 11.59-1.72 15.73 1.95 2.1 1.8 3.71 4.05 4.97 6.43 1.24 2.4 2.18 4.95 2.75 7.57-.78-2.56-1.88-5.02-3.22-7.31-1.37-2.27-3.06-4.35-5.13-5.93-4.03-3.26-9.98-3.9-14.35-1.35-2.19 1.26-3.93 3.21-5.27 5.4-1.34 2.2-2.3 4.64-3.04 7.14-1.37 5.04-1.94 10.35-1.87 15.62.06 5.19 1.55 10.31 3.9 14.97 2.32 4.7 5.59 8.93 9.32 12.64.91.96 1.93 1.79 2.92 2.67 1.04.8 2.05 1.66 3.15 2.37 2.15 1.46 4.52 2.82 7 3.18 1.22.11 2.45-.24 3.35-1.14.91-.86 1.53-2.05 1.97-3.28.44-1.24.73-2.54.92-3.86.21-1.32.32-2.65.34-3.99z"/><path class="st1" d="M385.68 214.32c-1.06-1.39-2.21-2.72-3.53-3.83-.65-.56-1.34-1.08-2.09-1.47-.74-.39-1.55-.64-2.33-.61-.78.05-1.5.39-2.07.95-.57.56-1.16 1.27-1.72 1.91-1.12 1.32-2.15 2.7-3 4.18-1.76 2.94-2.72 6.3-3.01 9.73-.32 3.44.05 6.93.66 10.38-.23-.84-.46-1.69-.67-2.54l-.49-2.59c-.08-.88-.2-1.75-.25-2.63-.01-.88-.09-1.77-.02-2.66.11-3.55 1.1-7.11 2.91-10.19.91-1.54 1.98-2.97 3.15-4.3.61-.66 1.16-1.29 1.84-1.94.69-.65 1.67-1.07 2.64-1.06.98.01 1.88.36 2.65.83.79.46 1.47 1.04 2.11 1.66 1.26 1.26 2.34 2.66 3.22 4.18zm-3.24 7.47c1.31 1.02 2.51 2.15 3.55 3.51.25.35.49.71.69 1.13.18.42.41.89.27 1.59-.07.33-.31.7-.6.88-.14.12-.28.15-.43.23l-.34.11c-.45.15-.9.22-1.34.28-.89.11-1.74.09-2.55.09-.8-.01-1.59.01-2.1.21-.24.11-.38.21-.48.36-.1.19-.22.5-.3.84-.17.69-.24 1.46-.25 2.22-.04 1.51.15 3.07.71 4.4.24.7.65 1.26 1.09 1.8.51.45 1.03.9 1.72 1.1.18.06.31.12.52.19l.63.19c.42.11.82.31 1.22.48.78.41 1.53.87 2.16 1.48 1.25 1.21 2.13 2.79 2.3 4.45a8.185 8.185 0 0 0-2.92-3.69c-.63-.45-1.33-.77-2.05-1.03-.38-.09-.72-.24-1.1-.3-.37-.07-.73-.14-1.22-.28-.93-.18-1.76-.73-2.49-1.34-.65-.68-1.24-1.45-1.59-2.29-.76-1.67-.98-3.45-.97-5.21.03-.88.12-1.75.35-2.65.12-.45.27-.92.59-1.44.36-.53.94-.9 1.47-1.06 1.07-.31 1.94-.21 2.78-.18.83.04 1.62.13 2.37.11.7 0 1.66-.22 1.57-.3.08-.11.04-.48-.07-.8-.11-.34-.28-.69-.46-1.04-.75-1.41-1.75-2.72-2.73-4.04z"/><path d="M337.93 228.46s-12.94 17.68-13.53 26.52c0 0 15.91 58.25 38.3 81.86s56.57 54.25 56.57 54.25L434 364.57s-69.53-82.49-74.24-98.7c-4.72-16.2-21.83-37.41-21.83-37.41z" fill="#fff"/><path class="st1" d="M337.93 228.46a144.31 144.31 0 0 0-7.87 12.76c-1.21 2.18-2.3 4.43-3.25 6.72-.94 2.28-1.78 4.67-1.94 7.07l-.02-.15c2 6.75 4.27 13.44 6.66 20.06 2.36 6.64 4.95 13.2 7.69 19.68 2.75 6.48 5.81 12.82 9.07 19.03 3.38 6.14 7.07 12.11 11.31 17.63l3.39 3.93c.54.67 1.17 1.29 1.78 1.93l1.83 1.9c2.45 2.53 4.93 5.03 7.43 7.52 4.99 4.98 10.06 9.88 15.17 14.74a1478.72 1478.72 0 0 0 31.08 28.71l-2.31.39 14.8-26.47.16 1.6c-8.94-10.72-17.77-21.51-26.5-32.39-8.75-10.86-17.28-21.91-25.61-33.11-4.15-5.61-8.24-11.27-12.16-17.06-1.96-2.89-3.87-5.83-5.66-8.85-.9-1.5-1.74-3.05-2.51-4.65-.79-1.56-1.36-3.39-1.86-4.98-1.03-3.28-2.41-6.47-3.95-9.57-1.52-3.12-3.22-6.15-5.02-9.13-1.78-2.99-3.69-5.9-5.63-8.79-1.95-2.9-3.96-5.75-6.08-8.52zm0 0c4.4 5.4 8.55 11.03 12.3 16.92 1.88 2.94 3.68 5.95 5.3 9.05 1.65 3.09 3.13 6.28 4.28 9.62.59 1.72 1.1 3.22 1.92 4.75.78 1.52 1.66 3.01 2.57 4.48 1.81 2.95 3.75 5.83 5.75 8.67 3.99 5.69 8.16 11.26 12.4 16.79 8.47 11.05 17.25 21.86 26 32.71 8.78 10.82 17.66 21.56 26.64 32.2l.63.74-.47.86-14.66 26.56-.91 1.66-1.4-1.27c-10.48-9.5-20.81-19.14-31-28.94-5.09-4.9-10.15-9.84-15.13-14.86a590.91 590.91 0 0 1-7.42-7.59l-1.83-1.92c-.61-.64-1.23-1.27-1.8-1.97l-3.5-4.11c-4.31-5.74-7.93-11.89-11.26-18.16-3.2-6.34-6.18-12.78-8.84-19.34-2.65-6.57-5.14-13.19-7.4-19.9-2.22-6.72-4.31-13.47-6.14-20.31l-.02-.08.01-.07c.26-2.61 1.19-4.99 2.2-7.29 1.03-2.3 2.19-4.53 3.47-6.69 2.51-4.34 5.32-8.49 8.31-12.51z"/><path class="st1" d="M406.3 257.92s-8.25 40.07-15.91 38.3c0 0 8.25 54.21 40.66 79.55s60.69 18.86 63.64 11.2 5.89-20.03 4.71-31.82l.27-4.71s-12.64 3.12-19.71-4.54c0 0 8.25 13.37 2.36 14.55-5.89 1.18-20.35 2.95-18.72-19.44 0 0-19.58 10.61-22.53 1.18-2.95-9.43-.59-16.32-.59-16.32s-31.82-17.86-34.18-67.95zm99.7 0c-.84-.44-1.74-.74-2.66-.97-.91-.25-1.84-.41-2.77-.53-1.87-.24-3.76-.29-5.64-.19-1.89.04-3.76.32-5.63.58l-2.79.51-2.78.6 2.73-.84 2.78-.65c1.87-.35 3.77-.62 5.68-.7 1.91-.07 3.83-.02 5.72.31 1.86.34 3.75.85 5.36 1.88zm-318.3 59.14c3.89 2.59 7.52 5.57 10.99 8.71 3.47 3.14 6.8 6.46 9.95 9.93 6.26 6.99 11.88 14.59 16.62 22.72 4.8 8.1 8.64 16.77 11.61 25.73 2.92 8.97 4.87 18.27 5.82 27.66 1.87 18.8-.31 37.89-5.5 55.89-4.55 18.1-9.25 36.17-14.13 54.19 3.8-18.29 7.78-36.55 11.93-54.76 4.65-17.98 6.61-36.64 4.72-55.03-1.79-18.38-7.52-36.33-16.5-52.52-4.48-8.1-9.76-15.77-15.7-22.92-5.91-7.15-12.49-13.82-19.81-19.6z"/><path class="st1" d="M324.99 246.14c-13.22 3.56-26.36 7.36-39.39 11.52-13.05 4.07-26.01 8.44-38.8 13.23-12.77 4.84-25.45 9.92-37.73 15.83-6.15 2.94-12.2 6.05-18.07 9.47-5.86 3.42-11.56 7.13-16.81 11.35-2.63 2.11-5.12 4.34-7.45 6.77a112.56 112.56 0 0 0-6.67 7.62c-4.24 5.28-8.09 10.89-11.75 16.62-7.32 11.48-13.7 23.56-19.75 35.8-6.02 12.26-11.55 24.77-16.77 37.4-5.29 12.61-10.2 25.38-14.84 38.26 8.17-26.13 17.98-51.77 29.56-76.64 5.79-12.44 12.16-24.62 19.42-36.32 3.63-5.85 7.55-11.53 11.86-16.94 2.16-2.7 4.41-5.33 6.81-7.85 2.4-2.52 5.01-4.88 7.71-7.05 5.42-4.36 11.25-8.1 17.21-11.56 5.97-3.45 12.1-6.59 18.32-9.51 6.22-2.92 12.54-5.62 18.9-8.19 3.18-1.29 6.38-2.52 9.59-3.74 3.21-1.2 6.44-2.36 9.67-3.51 12.94-4.55 26.01-8.67 39.17-12.47a853.37 853.37 0 0 1 19.84-5.34c6.62-1.7 13.27-3.31 19.97-4.75zm0 468.81l3.9-34.89 4-34.88c2.68-23.25 5.3-46.51 8.09-69.75l8.27-69.73 8.33-69.72.01-.12.02-.08c.13-.51.22-.78.35-1.12.12-.34.26-.64.39-.95.28-.61.58-1.2.92-1.75.33-.56.68-1.1 1.07-1.61.36-.53.78-1.01 1.19-1.5 1.66-1.92 3.59-3.55 5.62-4.97 4.11-2.76 8.65-4.63 13.26-5.96 2.32-.72 4.6-1.12 6.89-1.63l3.44-.74 3.41-.67 13.64-2.69c18.19-3.53 36.39-6.9 54.6-10.31l54.62-10.12 54.65-9.96 54.66-9.91 54.69-9.76c36.45-6.55 72.94-12.86 109.42-19.24l.65-.11.51.33c1.78 1.17 3.24 2.45 4.67 3.89 1.4 1.44 2.68 3.02 3.72 4.78 1.02 1.77 1.86 3.68 2.31 5.72.13.5.16 1.03.24 1.55.08.52.14 1.03.12 1.56v1.57c-.05.52-.14 1.03-.21 1.55-1.29 7.46-2.17 14.98-3.14 22.51l-5.49 45.2-10.67 90.47c1.38-15.12 2.75-30.24 4.23-45.35l4.44-45.33c1.49-15.11 3.04-30.22 4.75-45.31.88-7.54 1.67-15.12 2.87-22.64.05-.43.12-.85.16-1.27l-.02-1.28c.02-.43-.04-.85-.11-1.27-.08-.42-.1-.85-.21-1.26-.39-1.67-1.11-3.26-2-4.76-.91-1.5-2.06-2.87-3.32-4.14-1.25-1.24-2.7-2.45-4.1-3.35l1.16.22c-36.4 6.79-72.79 13.68-109.22 20.36l-109.26 20.12-109.27 20.05-54.6 10.13-13.63 2.6-3.41.65-3.36.7c-2.23.48-4.52.87-6.63 1.52-4.28 1.21-8.41 2.9-12.01 5.28-1.77 1.22-3.41 2.6-4.79 4.17-.34.4-.69.79-.98 1.21-.32.41-.6.84-.86 1.27-.27.43-.5.88-.71 1.31-.1.22-.21.44-.28.66-.08.19-.17.48-.18.53l.03-.19-9.05 69.63-9.11 69.62c-3 23.21-6.17 46.4-9.29 69.6l-4.69 34.8-4.7 34.76z"/><path class="st1" d="M542.37 325.86c2.6 1.33 4.94 3.09 7.19 4.95 2.25 1.86 4.31 3.94 6.33 6.05 3.98 4.28 7.4 9.05 10.55 13.96l2.27 3.75 2.07 3.85 1.04 1.93.94 1.97c.63 1.31 1.25 2.64 1.85 3.96 1.17 2.67 2.2 5.4 3.31 8.09.93 2.76 1.88 5.51 2.77 8.28l-3.23-8.1c-1.19-2.65-2.3-5.33-3.55-7.95-.65-1.3-1.3-2.59-1.93-3.9l-.96-1.95-1.05-1.9-2.1-3.8-2.29-3.69c-3.05-4.92-6.45-9.62-10.27-13.97-.98-1.06-1.93-2.16-2.95-3.19-1.03-1.01-2.04-2.06-3.13-3.01-2.11-1.98-4.38-3.81-6.86-5.33z"/></g></svg>